<?xml version="1.0" encoding="UTF-8"?>
<svg xmlns="http://www.w3.org/2000/svg" xmlns:xlink="http://www.w3.org/1999/xlink" width="1920" height="1080" viewBox="0 0 1920 1080">
<defs>
<g>
<g id="glyph-0-0">
<path d="M 3.257812 -1.867188 L 4.050781 -1.867188 L 4.050781 -1.261719 L 3.257812 -1.261719 L 3.257812 0 L 2.605469 0 L 2.605469 -1.261719 L 0.273438 -1.261719 L 0.273438 -1.984375 L 2.457031 -5.507812 L 3.257812 -5.507812 Z M 2.605469 -4.746094 L 2.589844 -4.746094 L 0.832031 -1.867188 L 2.605469 -1.867188 Z "/>
</g>
<g id="glyph-0-1">
<path d="M 0.296875 -2.753906 C 0.296875 -3.066406 0.320312 -3.386719 0.375 -3.726562 C 0.425781 -4.0625 0.519531 -4.371094 0.660156 -4.648438 C 0.800781 -4.925781 0.992188 -5.152344 1.234375 -5.332031 C 1.472656 -5.511719 1.785156 -5.601562 2.160156 -5.601562 C 2.539062 -5.601562 2.851562 -5.511719 3.089844 -5.332031 C 3.332031 -5.152344 3.523438 -4.925781 3.664062 -4.648438 C 3.804688 -4.371094 3.898438 -4.0625 3.949219 -3.726562 C 4.003906 -3.390625 4.027344 -3.0625 4.027344 -2.753906 C 4.027344 -2.441406 4.003906 -2.117188 3.949219 -1.78125 C 3.898438 -1.445312 3.804688 -1.136719 3.664062 -0.859375 C 3.523438 -0.582031 3.332031 -0.355469 3.089844 -0.175781 C 2.851562 0.00390625 2.539062 0.09375 2.160156 0.09375 C 1.78125 0.09375 1.472656 0.00390625 1.234375 -0.175781 C 0.992188 -0.355469 0.800781 -0.582031 0.660156 -0.859375 C 0.519531 -1.136719 0.425781 -1.445312 0.375 -1.78125 C 0.320312 -2.117188 0.296875 -2.441406 0.296875 -2.753906 Z M 0.949219 -2.753906 C 0.949219 -2.617188 0.953125 -2.46875 0.964844 -2.300781 C 0.976562 -2.136719 0.996094 -1.96875 1.023438 -1.800781 C 1.050781 -1.632812 1.09375 -1.46875 1.148438 -1.304688 C 1.203125 -1.144531 1.273438 -1.003906 1.363281 -0.878906 C 1.457031 -0.753906 1.566406 -0.65625 1.695312 -0.578125 C 1.824219 -0.503906 1.980469 -0.464844 2.160156 -0.464844 C 2.34375 -0.464844 2.5 -0.503906 2.628906 -0.578125 C 2.757812 -0.652344 2.867188 -0.753906 2.960938 -0.878906 C 3.050781 -1.003906 3.121094 -1.144531 3.175781 -1.304688 C 3.230469 -1.464844 3.273438 -1.632812 3.300781 -1.800781 C 3.328125 -1.96875 3.347656 -2.136719 3.359375 -2.300781 C 3.371094 -2.46875 3.375 -2.617188 3.375 -2.753906 C 3.375 -2.886719 3.371094 -3.039062 3.359375 -3.203125 C 3.347656 -3.371094 3.328125 -3.539062 3.300781 -3.707031 C 3.273438 -3.875 3.230469 -4.039062 3.175781 -4.199219 C 3.121094 -4.359375 3.050781 -4.503906 2.960938 -4.628906 C 2.867188 -4.753906 2.757812 -4.851562 2.628906 -4.925781 C 2.5 -5 2.34375 -5.039062 2.160156 -5.039062 C 1.980469 -5.039062 1.824219 -5.003906 1.695312 -4.925781 C 1.566406 -4.851562 1.457031 -4.753906 1.363281 -4.628906 C 1.273438 -4.503906 1.203125 -4.359375 1.148438 -4.199219 C 1.09375 -4.039062 1.050781 -3.875 1.023438 -3.707031 C 0.996094 -3.539062 0.976562 -3.371094 0.964844 -3.203125 C 0.953125 -3.039062 0.949219 -2.886719 0.949219 -2.753906 Z "/>
</g>
</g>
</defs>
<g fill="rgb(100%, 62.745098%, 5.882353%)" fill-opacity="1">
<use xlink:href="#glyph-0-0" x="30" y="27.777344"/>
<use xlink:href="#glyph-0-1" x="34" y="27.777344"/>
<use xlink:href="#glyph-0-1" x="38" y="27.777344"/>
</g>
</svg>
