<?xml version="1.0" encoding="UTF-8"?>
<svg xmlns="http://www.w3.org/2000/svg" xmlns:xlink="http://www.w3.org/1999/xlink" width="1920" height="1080" viewBox="0 0 1920 1080">
<defs>
<g>
<g id="glyph-0-0">
<path d="M 1.59375 0 L 1.117188 0 L 0.0546875 -2.601562 L 0.5625 -2.601562 L 1.371094 -0.5625 L 1.382812 -0.5625 L 2.15625 -2.601562 L 2.621094 -2.601562 Z "/>
</g>
<g id="glyph-0-1">
<path d="M 0.378906 -2.265625 C 0.511719 -2.402344 0.667969 -2.503906 0.851562 -2.570312 C 1.035156 -2.632812 1.222656 -2.667969 1.410156 -2.667969 C 1.796875 -2.667969 2.074219 -2.574219 2.246094 -2.394531 C 2.414062 -2.214844 2.5 -1.9375 2.5 -1.566406 L 2.5 -0.449219 C 2.5 -0.375 2.503906 -0.300781 2.511719 -0.21875 C 2.519531 -0.140625 2.527344 -0.0664062 2.539062 0 L 2.121094 0 C 2.105469 -0.0585938 2.097656 -0.125 2.097656 -0.195312 C 2.09375 -0.269531 2.09375 -0.332031 2.09375 -0.390625 L 2.082031 -0.390625 C 1.996094 -0.257812 1.882812 -0.144531 1.742188 -0.0625 C 1.597656 0.0234375 1.429688 0.0664062 1.226562 0.0664062 C 1.09375 0.0664062 0.96875 0.0507812 0.851562 0.015625 C 0.734375 -0.015625 0.632812 -0.0664062 0.546875 -0.128906 C 0.460938 -0.195312 0.390625 -0.277344 0.339844 -0.371094 C 0.289062 -0.46875 0.261719 -0.578125 0.261719 -0.707031 C 0.261719 -0.921875 0.316406 -1.089844 0.429688 -1.210938 C 0.539062 -1.332031 0.675781 -1.425781 0.839844 -1.484375 C 1.007812 -1.542969 1.183594 -1.578125 1.375 -1.59375 C 1.566406 -1.609375 1.742188 -1.617188 1.898438 -1.617188 L 2.066406 -1.617188 L 2.066406 -1.695312 C 2.066406 -1.882812 2.011719 -2.027344 1.898438 -2.121094 C 1.785156 -2.21875 1.625 -2.265625 1.421875 -2.265625 C 1.28125 -2.265625 1.144531 -2.242188 1.007812 -2.195312 C 0.871094 -2.148438 0.753906 -2.078125 0.648438 -1.984375 Z M 1.632812 -1.25 C 1.355469 -1.25 1.136719 -1.210938 0.972656 -1.132812 C 0.808594 -1.054688 0.726562 -0.929688 0.726562 -0.75 C 0.726562 -0.585938 0.78125 -0.472656 0.890625 -0.402344 C 1 -0.335938 1.136719 -0.300781 1.300781 -0.300781 C 1.425781 -0.300781 1.535156 -0.320312 1.628906 -0.363281 C 1.722656 -0.40625 1.804688 -0.464844 1.867188 -0.535156 C 1.929688 -0.605469 1.976562 -0.6875 2.011719 -0.78125 C 2.042969 -0.875 2.0625 -0.976562 2.066406 -1.082031 L 2.066406 -1.25 Z "/>
</g>
<g id="glyph-0-2">
<path d="M 0.449219 -4.199219 L 0.882812 -4.199219 L 0.882812 0 L 0.449219 0 Z "/>
</g>
<g id="glyph-0-3">
<path d="M 2.679688 -0.617188 C 2.679688 -0.5 2.679688 -0.386719 2.6875 -0.285156 C 2.695312 -0.179688 2.699219 -0.0859375 2.699219 0 L 2.289062 0 C 2.289062 -0.0703125 2.285156 -0.140625 2.285156 -0.210938 C 2.28125 -0.28125 2.277344 -0.355469 2.277344 -0.429688 L 2.265625 -0.429688 C 2.238281 -0.367188 2.195312 -0.304688 2.140625 -0.246094 C 2.085938 -0.1875 2.023438 -0.132812 1.949219 -0.0859375 C 1.875 -0.0390625 1.792969 -0.00390625 1.699219 0.0234375 C 1.605469 0.0507812 1.507812 0.0664062 1.398438 0.0664062 C 1.230469 0.0664062 1.082031 0.0390625 0.957031 -0.0117188 C 0.832031 -0.0625 0.730469 -0.136719 0.648438 -0.226562 C 0.566406 -0.320312 0.507812 -0.433594 0.46875 -0.5625 C 0.429688 -0.695312 0.410156 -0.839844 0.410156 -0.996094 L 0.410156 -2.601562 L 0.84375 -2.601562 L 0.84375 -1.039062 C 0.84375 -0.820312 0.894531 -0.648438 0.988281 -0.523438 C 1.085938 -0.398438 1.234375 -0.332031 1.4375 -0.332031 C 1.578125 -0.332031 1.699219 -0.355469 1.804688 -0.40625 C 1.90625 -0.453125 1.988281 -0.523438 2.054688 -0.609375 C 2.117188 -0.699219 2.164062 -0.804688 2.195312 -0.929688 C 2.226562 -1.050781 2.246094 -1.183594 2.246094 -1.332031 L 2.246094 -2.601562 L 2.679688 -2.601562 Z "/>
</g>
<g id="glyph-0-4">
<path d="M 2.734375 -0.472656 C 2.578125 -0.273438 2.40625 -0.132812 2.222656 -0.0546875 C 2.039062 0.0273438 1.820312 0.0664062 1.578125 0.0664062 C 1.375 0.0664062 1.191406 0.03125 1.027344 -0.0429688 C 0.863281 -0.113281 0.726562 -0.210938 0.613281 -0.332031 C 0.5 -0.457031 0.414062 -0.601562 0.351562 -0.765625 C 0.292969 -0.933594 0.261719 -1.109375 0.261719 -1.300781 C 0.261719 -1.5 0.292969 -1.683594 0.359375 -1.851562 C 0.425781 -2.019531 0.519531 -2.164062 0.640625 -2.285156 C 0.757812 -2.40625 0.898438 -2.5 1.0625 -2.566406 C 1.222656 -2.632812 1.402344 -2.667969 1.59375 -2.667969 C 1.777344 -2.667969 1.941406 -2.636719 2.09375 -2.574219 C 2.246094 -2.511719 2.375 -2.425781 2.484375 -2.308594 C 2.59375 -2.191406 2.679688 -2.050781 2.738281 -1.878906 C 2.796875 -1.710938 2.828125 -1.519531 2.828125 -1.304688 L 2.828125 -1.167969 L 0.726562 -1.167969 C 0.734375 -1.054688 0.761719 -0.949219 0.808594 -0.847656 C 0.855469 -0.746094 0.914062 -0.65625 0.988281 -0.582031 C 1.0625 -0.503906 1.148438 -0.445312 1.25 -0.398438 C 1.351562 -0.355469 1.460938 -0.332031 1.578125 -0.332031 C 1.765625 -0.332031 1.925781 -0.367188 2.054688 -0.433594 C 2.183594 -0.5 2.300781 -0.597656 2.40625 -0.726562 Z M 2.359375 -1.535156 C 2.351562 -1.757812 2.28125 -1.933594 2.144531 -2.066406 C 2.007812 -2.199219 1.820312 -2.265625 1.578125 -2.265625 C 1.335938 -2.265625 1.144531 -2.199219 0.996094 -2.066406 C 0.847656 -1.933594 0.757812 -1.753906 0.726562 -1.535156 Z "/>
</g>
</g>
</defs>
<g fill="rgb(0%, 0%, 0%)" fill-opacity="1">
<use xlink:href="#glyph-0-0" x="30" y="25.555664"/>
<use xlink:href="#glyph-0-1" x="33" y="25.555664"/>
<use xlink:href="#glyph-0-2" x="36" y="25.555664"/>
<use xlink:href="#glyph-0-3" x="37" y="25.555664"/>
<use xlink:href="#glyph-0-4" x="40" y="25.555664"/>
</g>
</svg>
