<?xml version="1.0" encoding="UTF-8"?>
<svg xmlns="http://www.w3.org/2000/svg" xmlns:xlink="http://www.w3.org/1999/xlink" width="1920" height="1080" viewBox="0 0 1920 1080">
<defs>
<g>
<g id="glyph-0-0">
<path d="M 0.585938 -4.71875 L 1.148438 -4.71875 L 1.148438 0 L 0.585938 0 Z "/>
</g>
<g id="glyph-0-1">
<path d="M 0.492188 -2.378906 C 0.492188 -2.523438 0.488281 -2.65625 0.480469 -2.78125 C 0.472656 -2.90625 0.464844 -3.019531 0.464844 -3.121094 L 0.960938 -3.121094 C 0.960938 -3.035156 0.960938 -2.953125 0.964844 -2.867188 C 0.96875 -2.78125 0.972656 -2.695312 0.972656 -2.605469 L 0.988281 -2.605469 C 1.023438 -2.683594 1.074219 -2.753906 1.136719 -2.828125 C 1.199219 -2.898438 1.277344 -2.960938 1.367188 -3.015625 C 1.457031 -3.070312 1.554688 -3.117188 1.667969 -3.148438 C 1.777344 -3.183594 1.898438 -3.199219 2.027344 -3.199219 C 2.230469 -3.199219 2.40625 -3.167969 2.558594 -3.105469 C 2.707031 -3.042969 2.828125 -2.957031 2.925781 -2.847656 C 3.023438 -2.734375 3.097656 -2.601562 3.144531 -2.445312 C 3.191406 -2.285156 3.214844 -2.113281 3.214844 -1.925781 L 3.214844 0 L 2.695312 0 L 2.695312 -1.875 C 2.695312 -2.136719 2.636719 -2.34375 2.519531 -2.492188 C 2.40625 -2.644531 2.222656 -2.71875 1.980469 -2.71875 C 1.8125 -2.71875 1.664062 -2.691406 1.542969 -2.632812 C 1.421875 -2.574219 1.320312 -2.492188 1.242188 -2.386719 C 1.164062 -2.28125 1.109375 -2.152344 1.070312 -2.007812 C 1.03125 -1.859375 1.011719 -1.699219 1.011719 -1.519531 L 1.011719 0 L 0.492188 0 Z "/>
</g>
<g id="glyph-0-2">
<path d="M 0.464844 -3.121094 L 0.988281 -3.121094 L 0.988281 -2.667969 L 1 -2.667969 C 1.140625 -2.835938 1.308594 -2.96875 1.496094 -3.058594 C 1.683594 -3.152344 1.894531 -3.199219 2.121094 -3.199219 C 2.363281 -3.199219 2.589844 -3.160156 2.789062 -3.078125 C 2.992188 -2.996094 3.164062 -2.878906 3.308594 -2.734375 C 3.449219 -2.585938 3.558594 -2.414062 3.640625 -2.214844 C 3.71875 -2.015625 3.761719 -1.796875 3.761719 -1.558594 C 3.761719 -1.324219 3.71875 -1.105469 3.640625 -0.90625 C 3.558594 -0.707031 3.449219 -0.535156 3.308594 -0.386719 C 3.167969 -0.238281 3.003906 -0.125 2.8125 -0.0429688 C 2.621094 0.0390625 2.417969 0.078125 2.199219 0.078125 C 1.917969 0.078125 1.675781 0.0195312 1.464844 -0.101562 C 1.253906 -0.226562 1.097656 -0.375 1 -0.554688 L 0.988281 -0.554688 L 0.988281 1.519531 L 0.464844 1.519531 Z M 0.988281 -1.558594 C 0.988281 -1.394531 1.011719 -1.242188 1.0625 -1.101562 C 1.113281 -0.960938 1.1875 -0.839844 1.285156 -0.738281 C 1.382812 -0.632812 1.5 -0.550781 1.636719 -0.488281 C 1.773438 -0.429688 1.925781 -0.398438 2.09375 -0.398438 C 2.261719 -0.398438 2.414062 -0.429688 2.550781 -0.488281 C 2.6875 -0.550781 2.800781 -0.632812 2.898438 -0.738281 C 2.996094 -0.839844 3.074219 -0.964844 3.125 -1.101562 C 3.175781 -1.242188 3.199219 -1.394531 3.199219 -1.558594 C 3.199219 -1.722656 3.175781 -1.875 3.125 -2.015625 C 3.074219 -2.15625 2.996094 -2.277344 2.898438 -2.382812 C 2.800781 -2.488281 2.6875 -2.570312 2.550781 -2.628906 C 2.414062 -2.691406 2.261719 -2.71875 2.09375 -2.71875 C 1.925781 -2.71875 1.773438 -2.691406 1.636719 -2.628906 C 1.5 -2.570312 1.382812 -2.488281 1.285156 -2.382812 C 1.1875 -2.277344 1.113281 -2.15625 1.0625 -2.015625 C 1.011719 -1.875 0.988281 -1.722656 0.988281 -1.558594 Z "/>
</g>
<g id="glyph-0-3">
<path d="M 3.214844 -0.738281 C 3.214844 -0.597656 3.21875 -0.464844 3.226562 -0.339844 C 3.234375 -0.214844 3.238281 -0.101562 3.238281 0 L 2.746094 0 C 2.746094 -0.0859375 2.746094 -0.167969 2.738281 -0.253906 C 2.734375 -0.339844 2.734375 -0.425781 2.734375 -0.511719 L 2.71875 -0.511719 C 2.683594 -0.4375 2.632812 -0.363281 2.570312 -0.292969 C 2.503906 -0.222656 2.429688 -0.160156 2.339844 -0.101562 C 2.25 -0.046875 2.152344 -0.00390625 2.039062 0.03125 C 1.929688 0.0625 1.808594 0.078125 1.679688 0.078125 C 1.476562 0.078125 1.300781 0.0507812 1.148438 -0.0117188 C 1 -0.0742188 0.878906 -0.164062 0.78125 -0.273438 C 0.683594 -0.382812 0.609375 -0.519531 0.5625 -0.675781 C 0.515625 -0.835938 0.492188 -1.007812 0.492188 -1.195312 L 0.492188 -3.121094 L 1.011719 -3.121094 L 1.011719 -1.246094 C 1.011719 -0.984375 1.070312 -0.777344 1.1875 -0.625 C 1.300781 -0.476562 1.480469 -0.398438 1.726562 -0.398438 C 1.894531 -0.398438 2.042969 -0.429688 2.164062 -0.488281 C 2.285156 -0.546875 2.386719 -0.625 2.464844 -0.734375 C 2.542969 -0.839844 2.597656 -0.964844 2.636719 -1.113281 C 2.675781 -1.261719 2.695312 -1.421875 2.695312 -1.601562 L 2.695312 -3.121094 L 3.214844 -3.121094 Z "/>
</g>
<g id="glyph-0-4">
<path d="M 2.199219 -2.679688 L 1.28125 -2.679688 L 1.28125 -1.121094 C 1.28125 -1.019531 1.28125 -0.921875 1.285156 -0.835938 C 1.289062 -0.75 1.308594 -0.675781 1.339844 -0.609375 C 1.371094 -0.546875 1.417969 -0.496094 1.480469 -0.457031 C 1.542969 -0.417969 1.632812 -0.398438 1.746094 -0.398438 C 1.820312 -0.398438 1.898438 -0.410156 1.980469 -0.425781 C 2.058594 -0.445312 2.136719 -0.472656 2.207031 -0.507812 L 2.226562 -0.0351562 C 2.136719 0.0078125 2.039062 0.0351562 1.929688 0.0546875 C 1.820312 0.0703125 1.71875 0.078125 1.621094 0.078125 C 1.433594 0.078125 1.285156 0.0546875 1.171875 0.0078125 C 1.0625 -0.0429688 0.976562 -0.109375 0.914062 -0.199219 C 0.851562 -0.289062 0.808594 -0.398438 0.789062 -0.53125 C 0.769531 -0.660156 0.761719 -0.808594 0.761719 -0.964844 L 0.761719 -2.679688 L 0.078125 -2.679688 L 0.078125 -3.121094 L 0.761719 -3.121094 L 0.761719 -4.007812 L 1.28125 -4.007812 L 1.28125 -3.121094 L 2.199219 -3.121094 Z "/>
</g>
<g id="glyph-0-5">
<rect x="0" y="0" width="0" height="0" mask="url(#mask-0)"/>
</g>
<g id="glyph-0-6">
<path d="M 3.28125 -0.566406 C 3.09375 -0.328125 2.890625 -0.160156 2.667969 -0.0625 C 2.445312 0.03125 2.1875 0.078125 1.894531 0.078125 C 1.648438 0.078125 1.429688 0.0351562 1.234375 -0.0507812 C 1.039062 -0.136719 0.871094 -0.253906 0.738281 -0.398438 C 0.601562 -0.546875 0.496094 -0.71875 0.421875 -0.921875 C 0.347656 -1.121094 0.3125 -1.332031 0.3125 -1.558594 C 0.3125 -1.800781 0.351562 -2.019531 0.433594 -2.222656 C 0.511719 -2.425781 0.625 -2.597656 0.765625 -2.742188 C 0.910156 -2.886719 1.078125 -3 1.273438 -3.082031 C 1.46875 -3.160156 1.683594 -3.199219 1.914062 -3.199219 C 2.132812 -3.199219 2.332031 -3.164062 2.511719 -3.089844 C 2.695312 -3.015625 2.851562 -2.910156 2.984375 -2.769531 C 3.113281 -2.628906 3.214844 -2.460938 3.285156 -2.257812 C 3.355469 -2.054688 3.394531 -1.824219 3.394531 -1.566406 L 3.394531 -1.398438 L 0.875 -1.398438 C 0.882812 -1.265625 0.914062 -1.140625 0.96875 -1.015625 C 1.023438 -0.894531 1.097656 -0.789062 1.1875 -0.695312 C 1.277344 -0.605469 1.378906 -0.535156 1.5 -0.480469 C 1.621094 -0.425781 1.75 -0.398438 1.894531 -0.398438 C 2.121094 -0.398438 2.3125 -0.441406 2.464844 -0.519531 C 2.621094 -0.601562 2.761719 -0.71875 2.886719 -0.875 Z M 2.832031 -1.839844 C 2.824219 -2.105469 2.738281 -2.320312 2.574219 -2.480469 C 2.410156 -2.640625 2.183594 -2.71875 1.894531 -2.71875 C 1.605469 -2.71875 1.371094 -2.640625 1.195312 -2.480469 C 1.015625 -2.320312 0.910156 -2.105469 0.875 -1.839844 Z "/>
</g>
<g id="glyph-0-7">
<path d="M 0.492188 -2.378906 C 0.492188 -2.523438 0.488281 -2.65625 0.480469 -2.78125 C 0.472656 -2.90625 0.464844 -3.019531 0.464844 -3.121094 L 0.960938 -3.121094 C 0.960938 -3.035156 0.960938 -2.953125 0.964844 -2.867188 C 0.96875 -2.78125 0.972656 -2.695312 0.972656 -2.605469 L 0.988281 -2.605469 C 1.023438 -2.683594 1.074219 -2.753906 1.136719 -2.828125 C 1.199219 -2.898438 1.277344 -2.960938 1.367188 -3.015625 C 1.457031 -3.070312 1.554688 -3.117188 1.667969 -3.148438 C 1.777344 -3.183594 1.898438 -3.199219 2.027344 -3.199219 C 2.195312 -3.199219 2.335938 -3.179688 2.449219 -3.136719 C 2.5625 -3.09375 2.65625 -3.042969 2.734375 -2.984375 C 2.808594 -2.921875 2.867188 -2.859375 2.910156 -2.789062 C 2.953125 -2.722656 2.988281 -2.660156 3.011719 -2.605469 C 3.128906 -2.792969 3.261719 -2.9375 3.414062 -3.042969 C 3.566406 -3.148438 3.761719 -3.199219 4 -3.199219 C 4.222656 -3.199219 4.410156 -3.171875 4.558594 -3.109375 C 4.710938 -3.050781 4.832031 -2.964844 4.925781 -2.851562 C 5.019531 -2.738281 5.085938 -2.597656 5.125 -2.4375 C 5.167969 -2.273438 5.1875 -2.09375 5.1875 -1.894531 L 5.1875 0 L 4.667969 0 L 4.667969 -1.867188 C 4.667969 -1.972656 4.65625 -2.078125 4.632812 -2.179688 C 4.609375 -2.28125 4.570312 -2.375 4.511719 -2.453125 C 4.457031 -2.535156 4.378906 -2.597656 4.28125 -2.648438 C 4.183594 -2.695312 4.058594 -2.71875 3.90625 -2.71875 C 3.796875 -2.71875 3.691406 -2.699219 3.59375 -2.652344 C 3.496094 -2.609375 3.410156 -2.546875 3.335938 -2.464844 C 3.261719 -2.386719 3.207031 -2.289062 3.164062 -2.175781 C 3.121094 -2.0625 3.101562 -1.9375 3.101562 -1.800781 L 3.101562 0 L 2.582031 0 L 2.582031 -1.765625 C 2.582031 -2.113281 2.535156 -2.359375 2.441406 -2.503906 C 2.347656 -2.648438 2.195312 -2.71875 1.980469 -2.71875 C 1.8125 -2.71875 1.664062 -2.691406 1.542969 -2.632812 C 1.421875 -2.574219 1.320312 -2.492188 1.242188 -2.386719 C 1.164062 -2.28125 1.109375 -2.152344 1.070312 -2.007812 C 1.03125 -1.859375 1.011719 -1.699219 1.011719 -1.519531 L 1.011719 0 L 0.492188 0 Z "/>
</g>
<g id="glyph-0-8">
<path d="M 0.464844 -5.039062 L 0.988281 -5.039062 L 0.988281 -2.667969 L 1 -2.667969 C 1.140625 -2.835938 1.308594 -2.96875 1.496094 -3.058594 C 1.683594 -3.152344 1.894531 -3.199219 2.121094 -3.199219 C 2.363281 -3.199219 2.589844 -3.160156 2.789062 -3.078125 C 2.992188 -2.996094 3.164062 -2.878906 3.308594 -2.734375 C 3.449219 -2.585938 3.558594 -2.414062 3.640625 -2.214844 C 3.71875 -2.015625 3.761719 -1.796875 3.761719 -1.558594 C 3.761719 -1.324219 3.71875 -1.105469 3.640625 -0.90625 C 3.558594 -0.707031 3.449219 -0.535156 3.308594 -0.386719 C 3.167969 -0.238281 3.003906 -0.125 2.8125 -0.0429688 C 2.621094 0.0390625 2.417969 0.078125 2.199219 0.078125 C 1.917969 0.078125 1.675781 0.0195312 1.464844 -0.101562 C 1.253906 -0.226562 1.097656 -0.375 1 -0.554688 L 0.988281 -0.554688 L 0.988281 0 L 0.464844 0 Z M 0.988281 -1.558594 C 0.988281 -1.394531 1.011719 -1.242188 1.0625 -1.101562 C 1.113281 -0.960938 1.1875 -0.839844 1.285156 -0.738281 C 1.382812 -0.632812 1.5 -0.550781 1.636719 -0.488281 C 1.773438 -0.429688 1.925781 -0.398438 2.09375 -0.398438 C 2.261719 -0.398438 2.414062 -0.429688 2.550781 -0.488281 C 2.6875 -0.550781 2.800781 -0.632812 2.898438 -0.738281 C 2.996094 -0.839844 3.074219 -0.964844 3.125 -1.101562 C 3.175781 -1.242188 3.199219 -1.394531 3.199219 -1.558594 C 3.199219 -1.722656 3.175781 -1.875 3.125 -2.015625 C 3.074219 -2.15625 2.996094 -2.277344 2.898438 -2.382812 C 2.800781 -2.488281 2.6875 -2.570312 2.550781 -2.628906 C 2.414062 -2.691406 2.261719 -2.71875 2.09375 -2.71875 C 1.925781 -2.71875 1.773438 -2.691406 1.636719 -2.628906 C 1.5 -2.570312 1.382812 -2.488281 1.285156 -2.382812 C 1.1875 -2.277344 1.113281 -2.15625 1.0625 -2.015625 C 1.011719 -1.875 0.988281 -1.722656 0.988281 -1.558594 Z "/>
</g>
<g id="glyph-0-9">
<path d="M 3.085938 -0.554688 L 3.074219 -0.554688 C 2.976562 -0.375 2.820312 -0.226562 2.609375 -0.101562 C 2.398438 0.0195312 2.152344 0.078125 1.875 0.078125 C 1.65625 0.078125 1.453125 0.0390625 1.261719 -0.0429688 C 1.070312 -0.125 0.902344 -0.238281 0.761719 -0.386719 C 0.621094 -0.535156 0.511719 -0.707031 0.433594 -0.90625 C 0.351562 -1.105469 0.3125 -1.324219 0.3125 -1.558594 C 0.3125 -1.796875 0.351562 -2.011719 0.433594 -2.214844 C 0.511719 -2.414062 0.625 -2.585938 0.765625 -2.734375 C 0.910156 -2.878906 1.082031 -2.996094 1.285156 -3.078125 C 1.484375 -3.160156 1.707031 -3.199219 1.953125 -3.199219 C 2.179688 -3.199219 2.386719 -3.152344 2.578125 -3.058594 C 2.765625 -2.964844 2.929688 -2.835938 3.074219 -2.667969 L 3.085938 -2.667969 L 3.085938 -5.039062 L 3.605469 -5.039062 L 3.605469 0 L 3.085938 0 Z M 3.085938 -1.558594 C 3.085938 -1.722656 3.0625 -1.875 3.011719 -2.015625 C 2.960938 -2.15625 2.882812 -2.277344 2.785156 -2.382812 C 2.6875 -2.488281 2.574219 -2.570312 2.4375 -2.628906 C 2.300781 -2.691406 2.148438 -2.71875 1.980469 -2.71875 C 1.8125 -2.71875 1.660156 -2.691406 1.523438 -2.628906 C 1.386719 -2.570312 1.269531 -2.488281 1.171875 -2.382812 C 1.074219 -2.277344 1 -2.15625 0.949219 -2.015625 C 0.898438 -1.875 0.875 -1.722656 0.875 -1.558594 C 0.875 -1.394531 0.898438 -1.242188 0.949219 -1.101562 C 1 -0.960938 1.074219 -0.839844 1.171875 -0.738281 C 1.269531 -0.632812 1.386719 -0.550781 1.523438 -0.488281 C 1.660156 -0.429688 1.8125 -0.398438 1.980469 -0.398438 C 2.148438 -0.398438 2.300781 -0.429688 2.4375 -0.488281 C 2.574219 -0.550781 2.6875 -0.632812 2.785156 -0.738281 C 2.882812 -0.839844 2.960938 -0.964844 3.011719 -1.101562 C 3.0625 -1.242188 3.085938 -1.394531 3.085938 -1.558594 Z "/>
</g>
<g id="glyph-0-10">
<path d="M 0.539062 -3.121094 L 1.058594 -3.121094 L 1.058594 0 L 0.539062 0 Z M 0.421875 -4.339844 C 0.421875 -4.441406 0.457031 -4.53125 0.53125 -4.605469 C 0.605469 -4.683594 0.695312 -4.71875 0.800781 -4.71875 C 0.90625 -4.71875 0.996094 -4.683594 1.070312 -4.605469 C 1.144531 -4.53125 1.179688 -4.441406 1.179688 -4.339844 C 1.179688 -4.230469 1.144531 -4.136719 1.074219 -4.066406 C 1.003906 -3.996094 0.910156 -3.960938 0.800781 -3.960938 C 0.6875 -3.960938 0.597656 -3.996094 0.527344 -4.066406 C 0.457031 -4.136719 0.421875 -4.230469 0.421875 -4.339844 Z "/>
</g>
<g id="glyph-0-11">
<path d="M 3.605469 -0.140625 C 3.605469 0.429688 3.460938 0.859375 3.171875 1.15625 C 2.878906 1.453125 2.457031 1.601562 1.90625 1.601562 C 1.601562 1.601562 1.324219 1.554688 1.078125 1.464844 C 0.832031 1.378906 0.59375 1.222656 0.375 1.007812 L 0.746094 0.578125 C 0.910156 0.757812 1.085938 0.890625 1.269531 0.984375 C 1.453125 1.074219 1.667969 1.121094 1.90625 1.121094 C 2.136719 1.121094 2.332031 1.085938 2.484375 1.015625 C 2.636719 0.949219 2.757812 0.855469 2.847656 0.738281 C 2.9375 0.621094 2.996094 0.484375 3.035156 0.332031 C 3.070312 0.183594 3.085938 0.0234375 3.085938 -0.140625 L 3.085938 -0.539062 L 3.074219 -0.539062 C 2.949219 -0.339844 2.785156 -0.191406 2.585938 -0.101562 C 2.386719 -0.0078125 2.183594 0.0390625 1.972656 0.0390625 C 1.730469 0.0390625 1.503906 0 1.300781 -0.078125 C 1.097656 -0.160156 0.921875 -0.269531 0.773438 -0.414062 C 0.625 -0.554688 0.511719 -0.722656 0.433594 -0.921875 C 0.351562 -1.117188 0.3125 -1.328125 0.3125 -1.558594 C 0.3125 -1.8125 0.351562 -2.042969 0.433594 -2.246094 C 0.511719 -2.449219 0.625 -2.625 0.769531 -2.761719 C 0.914062 -2.902344 1.089844 -3.011719 1.292969 -3.085938 C 1.496094 -3.160156 1.722656 -3.199219 1.972656 -3.199219 C 2.078125 -3.199219 2.1875 -3.1875 2.292969 -3.164062 C 2.398438 -3.140625 2.503906 -3.101562 2.601562 -3.050781 C 2.703125 -3 2.792969 -2.933594 2.875 -2.855469 C 2.953125 -2.777344 3.019531 -2.6875 3.074219 -2.585938 L 3.085938 -2.585938 L 3.085938 -3.121094 L 3.605469 -3.121094 Z M 0.875 -1.558594 C 0.875 -1.398438 0.902344 -1.253906 0.960938 -1.117188 C 1.019531 -0.980469 1.097656 -0.863281 1.195312 -0.761719 C 1.296875 -0.664062 1.414062 -0.585938 1.546875 -0.527344 C 1.679688 -0.46875 1.824219 -0.441406 1.972656 -0.441406 C 2.152344 -0.441406 2.308594 -0.472656 2.445312 -0.535156 C 2.585938 -0.597656 2.703125 -0.679688 2.796875 -0.785156 C 2.890625 -0.886719 2.964844 -1.007812 3.011719 -1.144531 C 3.0625 -1.28125 3.085938 -1.421875 3.085938 -1.574219 C 3.085938 -1.742188 3.058594 -1.898438 3.007812 -2.035156 C 2.953125 -2.175781 2.878906 -2.296875 2.78125 -2.398438 C 2.683594 -2.5 2.566406 -2.582031 2.425781 -2.636719 C 2.289062 -2.691406 2.136719 -2.71875 1.972656 -2.71875 C 1.808594 -2.71875 1.660156 -2.691406 1.523438 -2.628906 C 1.386719 -2.570312 1.273438 -2.488281 1.175781 -2.382812 C 1.082031 -2.277344 1.007812 -2.15625 0.953125 -2.015625 C 0.898438 -1.875 0.875 -1.722656 0.875 -1.558594 Z "/>
</g>
<g id="glyph-0-12">
<path d="M 0.558594 -0.820312 C 0.660156 -0.691406 0.773438 -0.589844 0.898438 -0.511719 C 1.019531 -0.4375 1.171875 -0.398438 1.359375 -0.398438 C 1.441406 -0.398438 1.519531 -0.410156 1.601562 -0.425781 C 1.683594 -0.445312 1.761719 -0.472656 1.828125 -0.511719 C 1.894531 -0.554688 1.945312 -0.601562 1.988281 -0.664062 C 2.027344 -0.722656 2.046875 -0.796875 2.046875 -0.878906 C 2.046875 -0.964844 2.027344 -1.035156 1.988281 -1.085938 C 1.953125 -1.140625 1.902344 -1.1875 1.839844 -1.222656 C 1.777344 -1.261719 1.707031 -1.292969 1.625 -1.3125 C 1.546875 -1.335938 1.464844 -1.355469 1.378906 -1.375 C 1.234375 -1.40625 1.09375 -1.441406 0.960938 -1.480469 C 0.828125 -1.519531 0.710938 -1.574219 0.609375 -1.636719 C 0.511719 -1.703125 0.429688 -1.785156 0.371094 -1.886719 C 0.308594 -1.988281 0.28125 -2.121094 0.28125 -2.28125 C 0.28125 -2.429688 0.3125 -2.566406 0.378906 -2.679688 C 0.445312 -2.796875 0.535156 -2.890625 0.648438 -2.96875 C 0.757812 -3.042969 0.882812 -3.101562 1.019531 -3.140625 C 1.15625 -3.179688 1.300781 -3.199219 1.445312 -3.199219 C 1.667969 -3.199219 1.875 -3.15625 2.0625 -3.066406 C 2.253906 -2.976562 2.398438 -2.832031 2.507812 -2.632812 L 2.074219 -2.347656 C 2.007812 -2.457031 1.917969 -2.546875 1.808594 -2.617188 C 1.699219 -2.6875 1.570312 -2.71875 1.414062 -2.71875 C 1.34375 -2.71875 1.269531 -2.710938 1.195312 -2.695312 C 1.121094 -2.675781 1.058594 -2.648438 1 -2.613281 C 0.941406 -2.578125 0.894531 -2.53125 0.855469 -2.476562 C 0.820312 -2.421875 0.800781 -2.359375 0.800781 -2.285156 C 0.800781 -2.21875 0.820312 -2.164062 0.863281 -2.117188 C 0.90625 -2.070312 0.964844 -2.027344 1.035156 -1.992188 C 1.109375 -1.957031 1.195312 -1.925781 1.289062 -1.898438 C 1.386719 -1.871094 1.484375 -1.851562 1.585938 -1.832031 C 1.722656 -1.804688 1.855469 -1.773438 1.980469 -1.730469 C 2.105469 -1.6875 2.214844 -1.632812 2.308594 -1.558594 C 2.402344 -1.488281 2.472656 -1.398438 2.527344 -1.292969 C 2.582031 -1.1875 2.605469 -1.054688 2.605469 -0.898438 C 2.605469 -0.722656 2.570312 -0.570312 2.5 -0.445312 C 2.429688 -0.320312 2.335938 -0.222656 2.214844 -0.144531 C 2.097656 -0.0664062 1.964844 -0.0078125 1.816406 0.0273438 C 1.667969 0.0625 1.515625 0.078125 1.359375 0.078125 C 1.09375 0.078125 0.863281 0.0390625 0.671875 -0.0429688 C 0.476562 -0.125 0.300781 -0.277344 0.148438 -0.5 Z "/>
</g>
</g>
<image id="source-82" x="0" y="0" width="0" height="0"/>
<mask id="mask-0">
<use xlink:href="#source-82"/>
</mask>
</defs>
<g fill="rgb(0%, 0%, 0%)" fill-opacity="1">
<use xlink:href="#glyph-0-0" x="30" y="26.666992"/>
<use xlink:href="#glyph-0-1" x="32" y="26.666992"/>
<use xlink:href="#glyph-0-2" x="36" y="26.666992"/>
<use xlink:href="#glyph-0-3" x="40" y="26.666992"/>
<use xlink:href="#glyph-0-4" x="44" y="26.666992"/>
<use xlink:href="#glyph-0-5" x="46" y="26.666992"/>
<use xlink:href="#glyph-0-6" x="48" y="26.666992"/>
<use xlink:href="#glyph-0-7" x="52" y="26.666992"/>
<use xlink:href="#glyph-0-8" x="58" y="26.666992"/>
<use xlink:href="#glyph-0-6" x="62" y="26.666992"/>
<use xlink:href="#glyph-0-9" x="66" y="26.666992"/>
<use xlink:href="#glyph-0-9" x="70" y="26.666992"/>
<use xlink:href="#glyph-0-10" x="74" y="26.666992"/>
<use xlink:href="#glyph-0-1" x="76" y="26.666992"/>
<use xlink:href="#glyph-0-11" x="80" y="26.666992"/>
<use xlink:href="#glyph-0-12" x="84" y="26.666992"/>
</g>
</svg>
