<?xml version="1.0" encoding="UTF-8"?>
<svg xmlns="http://www.w3.org/2000/svg" xmlns:xlink="http://www.w3.org/1999/xlink" width="1920" height="1080" viewBox="0 0 1920 1080">
<defs>
<g>
<g id="glyph-0-0">
<path d="M 1.273438 -2.25 L 1.273438 -2.074219 L 0.773438 -2.074219 L 0.769531 -0.667969 C 0.769531 -0.546875 0.78125 -0.453125 0.800781 -0.386719 C 0.839844 -0.273438 0.917969 -0.21875 1.03125 -0.21875 C 1.089844 -0.21875 1.140625 -0.234375 1.183594 -0.261719 C 1.226562 -0.289062 1.273438 -0.332031 1.332031 -0.394531 L 1.394531 -0.339844 L 1.339844 -0.265625 C 1.253906 -0.152344 1.167969 -0.0703125 1.070312 -0.0234375 C 0.976562 0.0234375 0.886719 0.046875 0.796875 0.046875 C 0.605469 0.046875 0.476562 -0.0390625 0.40625 -0.210938 C 0.371094 -0.304688 0.351562 -0.429688 0.351562 -0.59375 L 0.351562 -2.074219 L 0.0859375 -2.074219 C 0.078125 -2.078125 0.0703125 -2.085938 0.0664062 -2.089844 C 0.0625 -2.09375 0.0625 -2.101562 0.0625 -2.109375 C 0.0625 -2.125 0.0664062 -2.136719 0.0703125 -2.148438 C 0.078125 -2.15625 0.101562 -2.175781 0.140625 -2.210938 C 0.253906 -2.304688 0.335938 -2.378906 0.382812 -2.433594 C 0.433594 -2.492188 0.550781 -2.644531 0.734375 -2.894531 C 0.757812 -2.894531 0.769531 -2.890625 0.773438 -2.886719 C 0.777344 -2.882812 0.777344 -2.871094 0.777344 -2.851562 L 0.777344 -2.25 Z "/>
</g>
<g id="glyph-0-1">
<rect x="0" y="0" width="0" height="0" mask="url(#mask-0)"/>
</g>
<g id="glyph-0-2">
<path d="M 2.671875 -0.929688 L 2.671875 -0.589844 L 0.148438 -0.589844 L 0.148438 -0.929688 Z M 2.671875 -1.9375 L 2.671875 -1.597656 L 0.148438 -1.597656 L 0.148438 -1.9375 Z "/>
</g>
<g id="glyph-0-3">
<path d="M 1.195312 -0.0898438 C 1.433594 -0.0898438 1.601562 -0.222656 1.6875 -0.484375 C 1.777344 -0.746094 1.824219 -1.125 1.824219 -1.621094 C 1.824219 -2.015625 1.796875 -2.332031 1.742188 -2.570312 C 1.640625 -3.007812 1.453125 -3.226562 1.175781 -3.226562 C 0.898438 -3.226562 0.710938 -3 0.609375 -2.546875 C 0.554688 -2.308594 0.527344 -1.992188 0.527344 -1.597656 C 0.527344 -1.226562 0.554688 -0.933594 0.609375 -0.710938 C 0.714844 -0.296875 0.910156 -0.0898438 1.195312 -0.0898438 Z M 1.1875 -3.359375 C 1.5625 -3.359375 1.855469 -3.164062 2.0625 -2.769531 C 2.226562 -2.453125 2.308594 -2.089844 2.308594 -1.675781 C 2.308594 -1.351562 2.257812 -1.046875 2.15625 -0.761719 C 1.964844 -0.222656 1.636719 0.046875 1.167969 0.046875 C 0.847656 0.046875 0.582031 -0.0976562 0.375 -0.390625 C 0.15625 -0.703125 0.0429688 -1.125 0.0429688 -1.65625 C 0.0429688 -2.078125 0.117188 -2.4375 0.265625 -2.742188 C 0.464844 -3.152344 0.773438 -3.359375 1.1875 -3.359375 Z "/>
</g>
</g>
<image id="source-6" x="0" y="0" width="0" height="0"/>
<mask id="mask-0">
<use xlink:href="#source-6"/>
</mask>
</defs>
<g fill="rgb(0%, 0%, 0%)" fill-opacity="1">
<use xlink:href="#glyph-0-0" x="30" y="23.75"/>
<use xlink:href="#glyph-0-1" x="31" y="23.75"/>
<use xlink:href="#glyph-0-2" x="32" y="23.75"/>
<use xlink:href="#glyph-0-1" x="35" y="23.75"/>
<use xlink:href="#glyph-0-3" x="36" y="23.75"/>
</g>
</svg>
