<?xml version="1.0" encoding="UTF-8"?>
<svg xmlns="http://www.w3.org/2000/svg" xmlns:xlink="http://www.w3.org/1999/xlink" width="1920" height="1080" viewBox="0 0 1920 1080">
<defs>
<g>
<g id="glyph-0-0">
<path d="M 1.808594 -4.097656 C 1.816406 -4.089844 1.820312 -4.082031 1.820312 -4.078125 C 1.820312 -4.074219 1.824219 -4.0625 1.824219 -4.042969 L 1.824219 -0.449219 C 1.824219 -0.296875 1.863281 -0.199219 1.945312 -0.15625 C 2.027344 -0.117188 2.179688 -0.0898438 2.402344 -0.0820312 L 2.402344 0 L 0.71875 0 L 0.71875 -0.0898438 C 0.960938 -0.101562 1.117188 -0.132812 1.191406 -0.1875 C 1.265625 -0.242188 1.300781 -0.359375 1.300781 -0.535156 L 1.300781 -3.300781 C 1.300781 -3.394531 1.289062 -3.46875 1.265625 -3.519531 C 1.242188 -3.566406 1.1875 -3.59375 1.109375 -3.59375 C 1.058594 -3.59375 0.992188 -3.578125 0.910156 -3.550781 C 0.828125 -3.519531 0.75 -3.488281 0.675781 -3.457031 L 0.675781 -3.542969 L 1.773438 -4.097656 Z "/>
</g>
<g id="glyph-0-1">
<path d="M 0.996094 0.0703125 C 0.902344 0.0703125 0.820312 0.0390625 0.753906 -0.0273438 C 0.6875 -0.09375 0.65625 -0.175781 0.65625 -0.269531 C 0.65625 -0.363281 0.691406 -0.441406 0.757812 -0.507812 C 0.824219 -0.574219 0.902344 -0.605469 0.996094 -0.605469 C 1.089844 -0.605469 1.167969 -0.574219 1.234375 -0.507812 C 1.300781 -0.441406 1.332031 -0.363281 1.332031 -0.269531 C 1.332031 -0.175781 1.300781 -0.09375 1.238281 -0.0273438 C 1.171875 0.0390625 1.09375 0.0703125 0.996094 0.0703125 Z "/>
</g>
</g>
</defs>
<g fill="rgb(26.666667%, 26.666667%, 26.666667%)" fill-opacity="1">
<use xlink:href="#glyph-0-0" x="30" y="24.583008"/>
<use xlink:href="#glyph-0-1" x="33" y="24.583008"/>
</g>
</svg>
