<?xml version="1.0" encoding="UTF-8"?>
<svg xmlns="http://www.w3.org/2000/svg" xmlns:xlink="http://www.w3.org/1999/xlink" width="1920" height="1080" viewBox="0 0 1920 1080">
<defs>
<g>
<g id="glyph-0-0">
<path d="M 0.535156 -4.042969 L 1.824219 -4.042969 L 1.824219 -3.898438 L 1.28125 -3.898438 C 1.160156 -3.898438 1.078125 -3.859375 1.039062 -3.78125 C 1.015625 -3.742188 1.003906 -3.6875 1.003906 -3.617188 L 1.003906 0.488281 C 1.003906 0.582031 1.015625 0.648438 1.042969 0.691406 C 1.085938 0.769531 1.171875 0.808594 1.300781 0.808594 L 1.824219 0.808594 L 1.824219 0.964844 L 0.535156 0.964844 Z "/>
</g>
<g id="glyph-0-1">
<path d="M 0.0703125 -0.109375 C 0.320312 -0.136719 0.484375 -0.195312 0.554688 -0.28125 C 0.625 -0.371094 0.664062 -0.574219 0.664062 -0.898438 L 0.664062 -3.378906 C 0.664062 -3.601562 0.628906 -3.746094 0.558594 -3.8125 C 0.488281 -3.878906 0.332031 -3.917969 0.0820312 -3.929688 L 0.0820312 -4.042969 L 1.292969 -4.042969 L 2.707031 -0.960938 L 4.058594 -4.042969 L 5.273438 -4.042969 L 5.273438 -3.929688 C 5.046875 -3.914062 4.902344 -3.871094 4.835938 -3.804688 C 4.769531 -3.738281 4.738281 -3.597656 4.738281 -3.378906 L 4.738281 -0.664062 C 4.738281 -0.441406 4.769531 -0.296875 4.835938 -0.234375 C 4.902344 -0.171875 5.046875 -0.128906 5.273438 -0.109375 L 5.273438 0 L 3.5625 0 L 3.5625 -0.109375 C 3.808594 -0.128906 3.960938 -0.175781 4.023438 -0.242188 C 4.085938 -0.3125 4.113281 -0.476562 4.113281 -0.734375 L 4.113281 -3.480469 L 2.550781 0 L 2.46875 0 L 0.929688 -3.335938 L 0.929688 -0.898438 C 0.929688 -0.5625 0.980469 -0.347656 1.078125 -0.246094 C 1.140625 -0.179688 1.28125 -0.132812 1.503906 -0.109375 L 1.503906 0 L 0.0703125 0 Z "/>
</g>
<g id="glyph-0-2">
<path d="M 2.726562 -1.570312 L 2.019531 -3.253906 L 1.320312 -1.570312 Z M 0.0898438 0 L 0.0898438 -0.109375 C 0.246094 -0.128906 0.363281 -0.1875 0.441406 -0.289062 C 0.519531 -0.390625 0.65625 -0.667969 0.847656 -1.117188 L 2.121094 -4.113281 L 2.242188 -4.113281 L 3.761719 -0.652344 C 3.863281 -0.421875 3.945312 -0.277344 4.003906 -0.222656 C 4.066406 -0.167969 4.167969 -0.128906 4.3125 -0.109375 L 4.3125 0 L 2.757812 0 L 2.757812 -0.109375 C 2.9375 -0.125 3.050781 -0.144531 3.101562 -0.167969 C 3.152344 -0.191406 3.179688 -0.246094 3.179688 -0.335938 C 3.179688 -0.367188 3.171875 -0.417969 3.152344 -0.496094 C 3.132812 -0.570312 3.101562 -0.652344 3.066406 -0.734375 L 2.8125 -1.320312 L 1.214844 -1.320312 C 1.054688 -0.921875 0.960938 -0.679688 0.929688 -0.589844 C 0.898438 -0.5 0.882812 -0.429688 0.882812 -0.378906 C 0.882812 -0.277344 0.925781 -0.203125 1.007812 -0.164062 C 1.058594 -0.140625 1.15625 -0.121094 1.300781 -0.109375 L 1.300781 0 Z "/>
</g>
<g id="glyph-0-3">
<path d="M 0.394531 -1.230469 C 0.496094 -0.957031 0.617188 -0.734375 0.757812 -0.574219 C 1 -0.289062 1.300781 -0.144531 1.660156 -0.144531 C 1.855469 -0.144531 2.023438 -0.207031 2.167969 -0.332031 C 2.308594 -0.453125 2.382812 -0.625 2.382812 -0.847656 C 2.382812 -1.046875 2.308594 -1.21875 2.167969 -1.367188 C 2.074219 -1.460938 1.875 -1.601562 1.574219 -1.789062 L 1.054688 -2.113281 C 0.898438 -2.210938 0.769531 -2.3125 0.675781 -2.414062 C 0.503906 -2.605469 0.417969 -2.820312 0.417969 -3.050781 C 0.417969 -3.359375 0.519531 -3.617188 0.726562 -3.820312 C 0.929688 -4.027344 1.203125 -4.128906 1.539062 -4.128906 C 1.679688 -4.128906 1.847656 -4.09375 2.042969 -4.027344 C 2.238281 -3.957031 2.351562 -3.921875 2.378906 -3.921875 C 2.453125 -3.921875 2.503906 -3.941406 2.535156 -3.976562 C 2.5625 -4.011719 2.585938 -4.0625 2.601562 -4.128906 L 2.726562 -4.128906 L 2.859375 -2.828125 L 2.714844 -2.828125 C 2.617188 -3.21875 2.457031 -3.492188 2.234375 -3.648438 C 2.015625 -3.804688 1.800781 -3.882812 1.585938 -3.882812 C 1.417969 -3.882812 1.273438 -3.832031 1.148438 -3.734375 C 1.023438 -3.636719 0.960938 -3.5 0.960938 -3.324219 C 0.960938 -3.167969 1.007812 -3.03125 1.105469 -2.921875 C 1.199219 -2.808594 1.347656 -2.6875 1.546875 -2.566406 L 2.085938 -2.234375 C 2.421875 -2.027344 2.660156 -1.835938 2.796875 -1.664062 C 2.929688 -1.488281 3 -1.28125 3 -1.042969 C 3 -0.722656 2.878906 -0.457031 2.636719 -0.242188 C 2.394531 -0.0273438 2.085938 0.0820312 1.710938 0.0820312 C 1.519531 0.0820312 1.324219 0.0429688 1.117188 -0.0273438 C 0.910156 -0.0976562 0.792969 -0.132812 0.765625 -0.132812 C 0.691406 -0.132812 0.644531 -0.113281 0.617188 -0.0703125 C 0.59375 -0.0273438 0.578125 0.0234375 0.570312 0.0703125 L 0.4375 0.0703125 L 0.253906 -1.230469 Z "/>
</g>
<g id="glyph-0-4">
<path d="M 0.109375 -0.109375 C 0.359375 -0.128906 0.511719 -0.175781 0.574219 -0.242188 C 0.632812 -0.3125 0.664062 -0.476562 0.664062 -0.734375 L 0.664062 -3.378906 C 0.664062 -3.601562 0.628906 -3.742188 0.5625 -3.808594 C 0.496094 -3.875 0.34375 -3.914062 0.109375 -3.929688 L 0.109375 -4.042969 L 1.851562 -4.042969 L 1.851562 -3.929688 C 1.613281 -3.917969 1.460938 -3.878906 1.390625 -3.808594 C 1.320312 -3.742188 1.285156 -3.597656 1.285156 -3.378906 L 1.285156 -2.128906 C 1.660156 -2.449219 1.96875 -2.71875 2.207031 -2.945312 C 2.636719 -3.351562 2.847656 -3.613281 2.847656 -3.730469 C 2.847656 -3.8125 2.8125 -3.863281 2.742188 -3.890625 C 2.667969 -3.917969 2.566406 -3.929688 2.429688 -3.929688 L 2.429688 -4.042969 L 4.03125 -4.042969 L 4.03125 -3.945312 C 3.835938 -3.925781 3.683594 -3.886719 3.570312 -3.828125 C 3.457031 -3.769531 3.300781 -3.644531 3.101562 -3.449219 L 1.941406 -2.3125 L 3.367188 -0.777344 C 3.628906 -0.492188 3.808594 -0.3125 3.90625 -0.242188 C 4 -0.171875 4.140625 -0.125 4.328125 -0.105469 L 4.328125 0 L 2.457031 0 L 2.457031 -0.109375 C 2.628906 -0.117188 2.742188 -0.128906 2.800781 -0.152344 C 2.859375 -0.171875 2.890625 -0.210938 2.890625 -0.273438 C 2.890625 -0.308594 2.871094 -0.359375 2.832031 -0.429688 C 2.792969 -0.5 2.734375 -0.578125 2.648438 -0.671875 L 1.492188 -1.941406 L 1.285156 -1.765625 L 1.285156 -0.664062 C 1.285156 -0.4375 1.320312 -0.292969 1.390625 -0.230469 C 1.457031 -0.171875 1.605469 -0.128906 1.835938 -0.109375 L 1.835938 0 L 0.109375 0 Z "/>
</g>
<g id="glyph-0-5">
<path d="M 1.492188 0.964844 L 0.203125 0.964844 L 0.203125 0.816406 L 0.75 0.816406 C 0.867188 0.816406 0.945312 0.777344 0.992188 0.703125 C 1.011719 0.664062 1.023438 0.609375 1.023438 0.539062 L 1.023438 -3.570312 C 1.023438 -3.667969 1.003906 -3.746094 0.964844 -3.800781 C 0.925781 -3.859375 0.847656 -3.886719 0.726562 -3.886719 L 0.203125 -3.886719 L 0.203125 -4.042969 L 1.492188 -4.042969 Z "/>
</g>
<g id="glyph-0-6">
<rect x="0" y="0" width="0" height="0" mask="url(#mask-0)"/>
</g>
<g id="glyph-0-7">
<path d="M 1.75 -1.652344 C 1.523438 -1.578125 1.332031 -1.492188 1.183594 -1.402344 C 0.898438 -1.226562 0.753906 -1.023438 0.753906 -0.800781 C 0.753906 -0.617188 0.816406 -0.484375 0.933594 -0.398438 C 1.011719 -0.34375 1.097656 -0.316406 1.195312 -0.316406 C 1.324219 -0.316406 1.449219 -0.351562 1.570312 -0.425781 C 1.691406 -0.5 1.75 -0.59375 1.75 -0.707031 Z M 0.222656 -0.59375 C 0.222656 -0.882812 0.367188 -1.121094 0.65625 -1.316406 C 0.839844 -1.433594 1.203125 -1.597656 1.75 -1.800781 L 1.75 -2.054688 C 1.75 -2.257812 1.730469 -2.398438 1.691406 -2.480469 C 1.625 -2.613281 1.484375 -2.679688 1.269531 -2.679688 C 1.167969 -2.679688 1.074219 -2.652344 0.980469 -2.601562 C 0.890625 -2.546875 0.84375 -2.472656 0.84375 -2.382812 C 0.84375 -2.359375 0.847656 -2.316406 0.859375 -2.261719 C 0.871094 -2.203125 0.875 -2.167969 0.875 -2.152344 C 0.875 -2.039062 0.835938 -1.960938 0.765625 -1.917969 C 0.722656 -1.890625 0.671875 -1.878906 0.613281 -1.878906 C 0.523438 -1.878906 0.457031 -1.910156 0.410156 -1.96875 C 0.363281 -2.027344 0.335938 -2.089844 0.335938 -2.164062 C 0.335938 -2.300781 0.421875 -2.449219 0.59375 -2.601562 C 0.765625 -2.753906 1.019531 -2.828125 1.351562 -2.828125 C 1.738281 -2.828125 2 -2.703125 2.136719 -2.453125 C 2.210938 -2.316406 2.246094 -2.117188 2.246094 -1.851562 L 2.246094 -0.65625 C 2.246094 -0.539062 2.253906 -0.460938 2.269531 -0.417969 C 2.296875 -0.339844 2.351562 -0.300781 2.429688 -0.300781 C 2.476562 -0.300781 2.515625 -0.308594 2.546875 -0.320312 C 2.574219 -0.335938 2.625 -0.371094 2.699219 -0.421875 L 2.699219 -0.269531 C 2.636719 -0.191406 2.566406 -0.128906 2.496094 -0.078125 C 2.382812 -0.00390625 2.269531 0.0351562 2.152344 0.0351562 C 2.019531 0.0351562 1.921875 -0.0078125 1.859375 -0.09375 C 1.800781 -0.183594 1.765625 -0.289062 1.761719 -0.410156 C 1.609375 -0.277344 1.480469 -0.179688 1.371094 -0.117188 C 1.191406 -0.0078125 1.019531 0.0429688 0.855469 0.0429688 C 0.683594 0.0429688 0.535156 -0.015625 0.410156 -0.136719 C 0.285156 -0.257812 0.222656 -0.410156 0.222656 -0.59375 Z "/>
</g>
<g id="glyph-0-8">
<path d="M 1.554688 -2.75 L 1.554688 -2.535156 L 0.945312 -2.535156 L 0.941406 -0.816406 C 0.941406 -0.664062 0.953125 -0.550781 0.980469 -0.472656 C 1.027344 -0.335938 1.121094 -0.269531 1.257812 -0.269531 C 1.332031 -0.269531 1.394531 -0.285156 1.445312 -0.320312 C 1.5 -0.351562 1.558594 -0.40625 1.625 -0.480469 L 1.703125 -0.414062 L 1.636719 -0.324219 C 1.535156 -0.1875 1.425781 -0.0859375 1.308594 -0.03125 C 1.195312 0.0273438 1.082031 0.0585938 0.976562 0.0585938 C 0.742188 0.0585938 0.582031 -0.046875 0.5 -0.257812 C 0.453125 -0.371094 0.429688 -0.527344 0.429688 -0.726562 L 0.429688 -2.535156 L 0.105469 -2.535156 C 0.09375 -2.542969 0.0859375 -2.546875 0.0820312 -2.554688 C 0.078125 -2.558594 0.0742188 -2.566406 0.0742188 -2.578125 C 0.0742188 -2.597656 0.078125 -2.613281 0.0898438 -2.625 C 0.0976562 -2.636719 0.125 -2.660156 0.171875 -2.699219 C 0.308594 -2.8125 0.410156 -2.90625 0.46875 -2.976562 C 0.53125 -3.046875 0.671875 -3.234375 0.898438 -3.535156 C 0.925781 -3.535156 0.9375 -3.535156 0.945312 -3.53125 C 0.949219 -3.527344 0.953125 -3.511719 0.953125 -3.484375 L 0.953125 -2.75 Z "/>
</g>
<g id="glyph-0-9">
<path d="M 1.398438 -2.796875 C 1.679688 -2.796875 1.925781 -2.703125 2.136719 -2.507812 C 2.347656 -2.3125 2.453125 -2.039062 2.453125 -1.683594 L 0.558594 -1.683594 C 0.578125 -1.222656 0.683594 -0.886719 0.871094 -0.675781 C 1.058594 -0.464844 1.285156 -0.359375 1.542969 -0.359375 C 1.75 -0.359375 1.925781 -0.414062 2.070312 -0.523438 C 2.214844 -0.632812 2.347656 -0.785156 2.46875 -0.988281 L 2.570312 -0.953125 C 2.488281 -0.699219 2.335938 -0.464844 2.113281 -0.25 C 1.890625 -0.0351562 1.617188 0.0703125 1.292969 0.0703125 C 0.917969 0.0703125 0.628906 -0.0703125 0.425781 -0.351562 C 0.222656 -0.632812 0.121094 -0.960938 0.121094 -1.328125 C 0.121094 -1.726562 0.238281 -2.074219 0.472656 -2.363281 C 0.710938 -2.652344 1.019531 -2.796875 1.398438 -2.796875 Z M 1.226562 -2.582031 C 1 -2.582031 0.828125 -2.480469 0.707031 -2.28125 C 0.644531 -2.171875 0.597656 -2.035156 0.570312 -1.875 L 1.828125 -1.875 C 1.808594 -2.074219 1.769531 -2.222656 1.714844 -2.316406 C 1.617188 -2.492188 1.453125 -2.582031 1.226562 -2.582031 Z "/>
</g>
<g id="glyph-0-10">
<path d="M 0.109375 -0.0820312 C 0.25 -0.101562 0.351562 -0.136719 0.40625 -0.191406 C 0.464844 -0.242188 0.492188 -0.359375 0.492188 -0.542969 L 0.492188 -2.054688 C 0.492188 -2.183594 0.480469 -2.273438 0.457031 -2.324219 C 0.417969 -2.398438 0.339844 -2.4375 0.222656 -2.4375 C 0.207031 -2.4375 0.1875 -2.4375 0.167969 -2.433594 C 0.148438 -2.433594 0.125 -2.429688 0.0976562 -2.425781 L 0.0976562 -2.53125 C 0.179688 -2.554688 0.371094 -2.617188 0.675781 -2.714844 L 0.957031 -2.808594 C 0.972656 -2.808594 0.980469 -2.800781 0.984375 -2.792969 C 0.988281 -2.78125 0.988281 -2.769531 0.988281 -2.75 L 0.988281 -2.3125 C 1.171875 -2.484375 1.3125 -2.601562 1.417969 -2.664062 C 1.574219 -2.761719 1.734375 -2.808594 1.902344 -2.808594 C 2.035156 -2.808594 2.160156 -2.773438 2.269531 -2.695312 C 2.484375 -2.542969 2.59375 -2.273438 2.59375 -1.886719 L 2.59375 -0.492188 C 2.59375 -0.347656 2.621094 -0.246094 2.679688 -0.183594 C 2.738281 -0.117188 2.832031 -0.0859375 2.96875 -0.0820312 L 2.96875 0 L 1.695312 0 L 1.695312 -0.0820312 C 1.839844 -0.101562 1.941406 -0.144531 2 -0.203125 C 2.058594 -0.265625 2.085938 -0.398438 2.085938 -0.601562 L 2.085938 -1.875 C 2.085938 -2.046875 2.054688 -2.1875 1.988281 -2.300781 C 1.925781 -2.410156 1.808594 -2.46875 1.636719 -2.46875 C 1.519531 -2.46875 1.402344 -2.425781 1.28125 -2.347656 C 1.210938 -2.300781 1.125 -2.226562 1.015625 -2.121094 L 1.015625 -0.449219 C 1.015625 -0.308594 1.050781 -0.210938 1.113281 -0.164062 C 1.175781 -0.113281 1.277344 -0.0859375 1.414062 -0.0820312 L 1.414062 0 L 0.109375 0 Z "/>
</g>
<g id="glyph-0-11">
<path d="M 1.445312 -2.820312 C 1.589844 -2.820312 1.726562 -2.789062 1.847656 -2.722656 C 1.925781 -2.683594 2.003906 -2.625 2.078125 -2.550781 L 2.078125 -3.5 C 2.078125 -3.621094 2.0625 -3.703125 2.035156 -3.75 C 2.007812 -3.796875 1.945312 -3.820312 1.84375 -3.820312 C 1.820312 -3.820312 1.800781 -3.816406 1.78125 -3.816406 C 1.761719 -3.8125 1.722656 -3.808594 1.660156 -3.804688 L 1.660156 -3.902344 L 1.90625 -3.964844 C 1.996094 -3.988281 2.085938 -4.015625 2.175781 -4.039062 C 2.265625 -4.066406 2.34375 -4.089844 2.410156 -4.113281 C 2.441406 -4.125 2.496094 -4.144531 2.570312 -4.171875 L 2.585938 -4.164062 L 2.582031 -3.851562 C 2.578125 -3.738281 2.578125 -3.621094 2.574219 -3.5 C 2.574219 -3.378906 2.570312 -3.261719 2.570312 -3.144531 L 2.566406 -0.707031 C 2.566406 -0.578125 2.582031 -0.488281 2.613281 -0.4375 C 2.644531 -0.382812 2.730469 -0.359375 2.867188 -0.359375 C 2.890625 -0.359375 2.910156 -0.359375 2.933594 -0.359375 C 2.953125 -0.359375 2.976562 -0.363281 3 -0.367188 L 3 -0.269531 C 2.988281 -0.265625 2.84375 -0.214844 2.566406 -0.121094 L 2.097656 0.0585938 L 2.078125 0.03125 L 2.078125 -0.335938 C 1.964844 -0.214844 1.867188 -0.128906 1.789062 -0.078125 C 1.644531 0.0117188 1.472656 0.0585938 1.28125 0.0585938 C 0.945312 0.0585938 0.671875 -0.0742188 0.460938 -0.335938 C 0.25 -0.597656 0.144531 -0.898438 0.144531 -1.246094 C 0.144531 -1.675781 0.273438 -2.046875 0.523438 -2.355469 C 0.773438 -2.664062 1.082031 -2.820312 1.445312 -2.820312 Z M 1.558594 -0.265625 C 1.714844 -0.265625 1.835938 -0.3125 1.933594 -0.402344 C 2.027344 -0.492188 2.078125 -0.582031 2.078125 -0.664062 L 2.078125 -1.941406 C 2.078125 -2.199219 2.007812 -2.382812 1.871094 -2.488281 C 1.730469 -2.59375 1.597656 -2.648438 1.464844 -2.648438 C 1.214844 -2.648438 1.019531 -2.539062 0.878906 -2.316406 C 0.742188 -2.09375 0.671875 -1.820312 0.671875 -1.496094 C 0.671875 -1.175781 0.746094 -0.890625 0.894531 -0.640625 C 1.042969 -0.390625 1.261719 -0.265625 1.558594 -0.265625 Z "/>
</g>
<g id="glyph-0-12">
<path d="M 0.316406 -0.941406 L 0.414062 -0.941406 C 0.460938 -0.714844 0.523438 -0.539062 0.601562 -0.417969 C 0.738281 -0.195312 0.941406 -0.0820312 1.210938 -0.0820312 C 1.359375 -0.0820312 1.476562 -0.125 1.566406 -0.207031 C 1.652344 -0.289062 1.695312 -0.398438 1.695312 -0.527344 C 1.695312 -0.613281 1.667969 -0.691406 1.621094 -0.769531 C 1.570312 -0.847656 1.484375 -0.921875 1.359375 -0.996094 L 1.023438 -1.1875 C 0.777344 -1.320312 0.597656 -1.449219 0.484375 -1.585938 C 0.367188 -1.71875 0.308594 -1.875 0.308594 -2.054688 C 0.308594 -2.277344 0.390625 -2.460938 0.550781 -2.605469 C 0.707031 -2.75 0.90625 -2.820312 1.148438 -2.820312 C 1.253906 -2.820312 1.371094 -2.800781 1.496094 -2.761719 C 1.621094 -2.71875 1.695312 -2.699219 1.710938 -2.699219 C 1.746094 -2.699219 1.769531 -2.707031 1.789062 -2.714844 C 1.804688 -2.726562 1.816406 -2.742188 1.828125 -2.761719 L 1.902344 -2.761719 L 1.921875 -1.929688 L 1.828125 -1.929688 C 1.789062 -2.125 1.734375 -2.273438 1.667969 -2.382812 C 1.542969 -2.582031 1.367188 -2.679688 1.132812 -2.679688 C 0.996094 -2.679688 0.886719 -2.636719 0.804688 -2.550781 C 0.726562 -2.464844 0.6875 -2.363281 0.6875 -2.25 C 0.6875 -2.066406 0.824219 -1.902344 1.097656 -1.761719 L 1.492188 -1.546875 C 1.914062 -1.316406 2.128906 -1.050781 2.128906 -0.742188 C 2.128906 -0.507812 2.039062 -0.316406 1.863281 -0.167969 C 1.6875 -0.0195312 1.457031 0.0585938 1.171875 0.0585938 C 1.054688 0.0585938 0.917969 0.0351562 0.765625 -0.00390625 C 0.613281 -0.0429688 0.527344 -0.0625 0.5 -0.0625 C 0.476562 -0.0625 0.453125 -0.0546875 0.4375 -0.0390625 C 0.417969 -0.0195312 0.402344 0 0.394531 0.0234375 L 0.316406 0.0234375 Z "/>
</g>
<g id="glyph-0-13">
<path d="M 0.15625 -1.382812 C 0.15625 -1.78125 0.28125 -2.113281 0.53125 -2.386719 C 0.785156 -2.660156 1.109375 -2.796875 1.503906 -2.796875 C 1.898438 -2.796875 2.222656 -2.667969 2.480469 -2.410156 C 2.742188 -2.152344 2.871094 -1.808594 2.871094 -1.378906 C 2.871094 -0.984375 2.746094 -0.636719 2.496094 -0.347656 C 2.246094 -0.0546875 1.917969 0.09375 1.523438 0.09375 C 1.140625 0.09375 0.816406 -0.046875 0.550781 -0.328125 C 0.285156 -0.609375 0.15625 -0.960938 0.15625 -1.382812 Z M 1.421875 -2.621094 C 1.261719 -2.621094 1.125 -2.566406 1.011719 -2.464844 C 0.8125 -2.285156 0.714844 -1.972656 0.714844 -1.527344 C 0.714844 -1.171875 0.792969 -0.84375 0.953125 -0.535156 C 1.113281 -0.230469 1.335938 -0.078125 1.621094 -0.078125 C 1.84375 -0.078125 2.015625 -0.179688 2.132812 -0.386719 C 2.253906 -0.589844 2.316406 -0.859375 2.316406 -1.191406 C 2.316406 -1.535156 2.238281 -1.859375 2.085938 -2.164062 C 1.933594 -2.46875 1.710938 -2.621094 1.421875 -2.621094 Z "/>
</g>
<g id="glyph-0-14">
<path d="M 0.0703125 -0.109375 C 0.292969 -0.132812 0.4375 -0.175781 0.503906 -0.230469 C 0.570312 -0.289062 0.605469 -0.429688 0.605469 -0.664062 L 0.605469 -3.378906 C 0.605469 -3.597656 0.574219 -3.738281 0.507812 -3.804688 C 0.441406 -3.871094 0.296875 -3.914062 0.0703125 -3.929688 L 0.0703125 -4.042969 L 1.796875 -4.042969 L 1.796875 -3.929688 C 1.570312 -3.917969 1.421875 -3.878906 1.34375 -3.820312 C 1.265625 -3.757812 1.230469 -3.625 1.230469 -3.421875 L 1.230469 -0.484375 C 1.230469 -0.417969 1.242188 -0.367188 1.261719 -0.328125 C 1.285156 -0.289062 1.335938 -0.261719 1.414062 -0.253906 C 1.460938 -0.246094 1.507812 -0.242188 1.558594 -0.242188 C 1.609375 -0.238281 1.703125 -0.238281 1.84375 -0.238281 C 2.386719 -0.238281 2.753906 -0.285156 2.945312 -0.371094 C 3.136719 -0.460938 3.320312 -0.691406 3.5 -1.058594 L 3.65625 -1.058594 L 3.355469 0 L 0.0703125 0 Z "/>
</g>
<g id="glyph-0-15">
<path d="M 0.0117188 -0.0820312 C 0.203125 -0.0976562 0.328125 -0.128906 0.390625 -0.179688 C 0.449219 -0.230469 0.480469 -0.335938 0.480469 -0.5 L 0.480469 -3.492188 C 0.480469 -3.632812 0.457031 -3.722656 0.410156 -3.757812 C 0.363281 -3.796875 0.292969 -3.816406 0.203125 -3.816406 C 0.164062 -3.816406 0.132812 -3.816406 0.105469 -3.8125 C 0.078125 -3.8125 0.046875 -3.808594 0.0117188 -3.804688 L 0.0117188 -3.886719 L 0.28125 -3.960938 C 0.484375 -4.011719 0.660156 -4.0625 0.800781 -4.113281 C 0.890625 -4.140625 0.941406 -4.15625 0.953125 -4.15625 C 0.964844 -4.15625 0.972656 -4.152344 0.976562 -4.148438 C 0.980469 -4.144531 0.980469 -4.132812 0.980469 -4.113281 L 0.980469 -1.605469 L 1.808594 -2.332031 C 1.867188 -2.386719 1.90625 -2.429688 1.929688 -2.460938 C 1.949219 -2.492188 1.960938 -2.519531 1.960938 -2.546875 C 1.960938 -2.589844 1.9375 -2.621094 1.894531 -2.632812 C 1.847656 -2.644531 1.769531 -2.652344 1.652344 -2.660156 L 1.652344 -2.742188 L 2.898438 -2.742188 L 2.898438 -2.660156 C 2.675781 -2.644531 2.496094 -2.601562 2.359375 -2.527344 C 2.222656 -2.453125 1.964844 -2.238281 1.582031 -1.886719 L 1.40625 -1.722656 L 1.957031 -1.007812 C 2.238281 -0.640625 2.453125 -0.398438 2.597656 -0.277344 C 2.738281 -0.15625 2.890625 -0.0898438 3.050781 -0.078125 L 3.050781 0 L 1.722656 0 L 1.722656 -0.0820312 L 1.828125 -0.0898438 C 1.863281 -0.0898438 1.894531 -0.0976562 1.921875 -0.109375 C 1.949219 -0.121094 1.964844 -0.140625 1.964844 -0.171875 C 1.964844 -0.191406 1.957031 -0.210938 1.949219 -0.230469 C 1.9375 -0.25 1.925781 -0.273438 1.90625 -0.296875 L 0.980469 -1.511719 L 0.980469 -0.410156 C 0.980469 -0.273438 1.03125 -0.179688 1.132812 -0.132812 C 1.191406 -0.105469 1.296875 -0.0898438 1.441406 -0.0898438 L 1.441406 0 L 0.0117188 0 Z "/>
</g>
</g>
<image id="source-112" x="0" y="0" width="0" height="0"/>
<mask id="mask-0">
<use xlink:href="#source-112"/>
</mask>
</defs>
<g fill="rgb(13.72549%, 41.960784%, 55.686275%)" fill-opacity="1">
<use xlink:href="#glyph-0-0" x="30" y="24.583008"/>
<use xlink:href="#glyph-0-1" x="32" y="24.583008"/>
<use xlink:href="#glyph-0-2" x="37" y="24.583008"/>
<use xlink:href="#glyph-0-3" x="41" y="24.583008"/>
<use xlink:href="#glyph-0-4" x="44" y="24.583008"/>
<use xlink:href="#glyph-0-5" x="48" y="24.583008"/>
<use xlink:href="#glyph-0-6" x="50" y="24.583008"/>
<use xlink:href="#glyph-0-7" x="52" y="24.583008"/>
<use xlink:href="#glyph-0-8" x="55" y="24.583008"/>
<use xlink:href="#glyph-0-8" x="57" y="24.583008"/>
<use xlink:href="#glyph-0-9" x="59" y="24.583008"/>
<use xlink:href="#glyph-0-10" x="62" y="24.583008"/>
<use xlink:href="#glyph-0-11" x="65" y="24.583008"/>
<use xlink:href="#glyph-0-12" x="68" y="24.583008"/>
<use xlink:href="#glyph-0-6" x="70" y="24.583008"/>
<use xlink:href="#glyph-0-8" x="72" y="24.583008"/>
<use xlink:href="#glyph-0-13" x="74" y="24.583008"/>
<use xlink:href="#glyph-0-6" x="77" y="24.583008"/>
<use xlink:href="#glyph-0-2" x="78" y="24.583008"/>
<use xlink:href="#glyph-0-14" x="82" y="24.583008"/>
<use xlink:href="#glyph-0-14" x="86" y="24.583008"/>
<use xlink:href="#glyph-0-6" x="90" y="24.583008"/>
<use xlink:href="#glyph-0-8" x="91" y="24.583008"/>
<use xlink:href="#glyph-0-13" x="93" y="24.583008"/>
<use xlink:href="#glyph-0-15" x="96" y="24.583008"/>
<use xlink:href="#glyph-0-9" x="99" y="24.583008"/>
<use xlink:href="#glyph-0-10" x="102" y="24.583008"/>
<use xlink:href="#glyph-0-12" x="105" y="24.583008"/>
</g>
</svg>
